<?xml version="1.0" standalone="no"?>
<!DOCTYPE svg PUBLIC "-//W3C//DTD SVG 20010904//EN"
 "http://www.w3.org/TR/2001/REC-SVG-20010904/DTD/svg10.dtd">
<svg version="1.0" xmlns="http://www.w3.org/2000/svg"
 width="512.000000pt" height="512.000000pt" viewBox="0 0 512.000000 512.000000"
 preserveAspectRatio="xMidYMid meet">
<metadata>
Created by potrace 1.14, written by Peter Selinger 2001-2017
</metadata>
<g transform="translate(0.000000,512.000000) scale(0.100000,-0.100000)"
fill="#000000" stroke="none">
<path d="M2530 5065 c-7 -13 -17 -22 -22 -19 -4 3 -8 -2 -8 -11 0 -10 -5 -13
-12 -9 -7 4 -8 3 -4 -5 6 -9 12 -9 24 1 15 11 15 11 5 -3 -7 -9 -10 -19 -6
-23 4 -4 0 -4 -8 -1 -18 7 -54 -29 -44 -44 3 -6 1 -11 -5 -11 -19 0 -60 -54
-47 -62 8 -5 6 -8 -6 -8 -11 0 -15 -4 -11 -12 5 -7 2 -9 -9 -5 -11 4 -14 2
-11 -7 3 -8 -6 -23 -20 -34 -14 -11 -26 -25 -26 -31 0 -6 -5 -11 -11 -11 -8 0
-7 -6 2 -17 13 -15 12 -15 -8 -5 -19 11 -21 10 -18 -8 2 -11 -8 -31 -24 -49
-16 -17 -26 -33 -22 -37 3 -4 2 -5 -4 -2 -11 6 -37 -17 -29 -25 3 -3 -4 -10
-15 -17 -12 -6 -21 -15 -21 -21 0 -6 6 -7 13 -3 6 4 3 -2 -7 -14 -11 -12 -24
-22 -30 -22 -6 0 -2 7 8 15 11 8 15 15 9 15 -16 0 -34 -25 -25 -36 4 -5 6 -8
3 -7 -5 3 -31 -24 -31 -32 0 -3 6 -3 13 1 7 4 9 3 4 -2 -5 -5 -14 -9 -20 -9
-7 0 -11 -8 -11 -18 2 -14 -1 -15 -13 -6 -8 7 -13 8 -12 3 4 -22 -2 -35 -12
-28 -8 5 -10 -1 -7 -19 3 -15 2 -24 -3 -22 -4 3 -9 2 -12 -2 -2 -5 -2 -2 -1 5
5 19 -2 14 -21 -14 -9 -15 -12 -23 -5 -19 8 5 11 3 8 -6 -3 -8 -11 -13 -17
-12 -6 2 -11 -2 -11 -8 0 -5 -4 -7 -10 -4 -5 3 -10 1 -10 -4 0 -6 5 -11 10
-11 6 0 6 -7 -2 -19 -6 -10 -18 -17 -25 -14 -8 3 -13 0 -11 -8 2 -8 -3 -13 -9
-12 -7 2 -12 0 -12 -5 3 -18 -2 -32 -12 -32 -5 0 -7 6 -3 13 4 7 2 7 -7 -2
-11 -10 -11 -15 -1 -18 6 -3 12 -9 12 -14 0 -6 -4 -8 -8 -5 -4 3 -16 -11 -27
-30 -10 -19 -23 -34 -28 -34 -6 0 -2 9 7 19 14 15 15 21 4 27 -7 4 -10 3 -5
-1 4 -5 -1 -17 -10 -28 -10 -10 -17 -22 -16 -26 6 -14 -9 -41 -19 -35 -8 5 -9
1 -4 -11 5 -15 4 -16 -8 -6 -12 10 -13 9 -9 -9 4 -16 0 -23 -17 -27 -16 -4
-18 -8 -8 -14 10 -7 9 -9 -5 -9 -11 0 -15 -4 -11 -12 5 -8 2 -9 -11 -4 -16 6
-16 4 -4 -11 12 -15 12 -16 -4 -10 -11 4 -16 3 -12 -3 3 -6 -1 -13 -10 -16
-13 -6 -14 -8 -3 -15 10 -7 9 -9 -5 -9 -11 0 -15 -4 -11 -12 5 -7 2 -9 -8 -5
-10 3 -15 0 -14 -11 0 -9 -4 -17 -11 -17 -6 0 -15 -4 -20 -9 -5 -5 -3 -6 5 -2
16 10 15 -2 -2 -19 -7 -8 -17 -11 -22 -7 -5 4 -2 -1 5 -11 12 -15 12 -17 -4
-10 -15 5 -17 3 -12 -11 4 -10 3 -15 -3 -11 -9 6 -15 -8 -11 -29 1 -5 -5 -6
-14 -2 -9 3 -13 2 -10 -3 3 -5 -4 -12 -14 -16 -13 -4 -18 -11 -14 -22 4 -11 2
-14 -5 -9 -8 5 -10 2 -6 -8 4 -9 -1 -18 -10 -22 -9 -3 -13 -11 -9 -17 4 -6 0
-8 -10 -4 -12 4 -14 2 -10 -10 5 -12 3 -14 -8 -8 -12 7 -12 6 -1 -7 11 -14 10
-16 -5 -13 -25 4 -36 -5 -24 -19 7 -8 3 -17 -14 -30 -14 -11 -25 -25 -25 -33
0 -8 -5 -11 -10 -8 -5 3 -10 1 -10 -4 0 -6 5 -11 12 -11 6 0 8 -3 5 -6 -4 -4
-14 -1 -24 7 -13 11 -15 11 -9 1 5 -8 1 -19 -10 -28 -11 -9 -12 -12 -4 -8 12
7 13 5 3 -8 -7 -8 -9 -18 -5 -23 4 -4 -3 -2 -16 4 -22 12 -23 11 -13 -8 10
-17 9 -20 -4 -15 -15 6 -22 -11 -7 -19 4 -2 1 -2 -6 0 -7 1 -18 -11 -24 -27
-9 -27 -18 -34 -39 -32 -3 1 -5 -10 -3 -24 2 -20 0 -23 -11 -14 -12 10 -13 8
-10 -9 2 -12 0 -19 -5 -16 -12 7 -32 -30 -22 -41 4 -5 0 -3 -8 3 -13 10 -16 8
-17 -8 -3 -31 -24 -54 -34 -37 -5 7 -9 8 -9 2 0 -5 6 -16 13 -23 10 -11 9 -12
-2 -6 -11 6 -13 4 -7 -11 4 -10 4 -15 0 -12 -9 10 -46 -11 -39 -22 3 -5 1 -11
-5 -15 -6 -4 -8 -11 -5 -16 4 -5 -4 -9 -17 -9 -18 0 -20 -2 -8 -10 13 -8 12
-10 -3 -10 -11 0 -15 -4 -11 -12 5 -8 1 -9 -12 -5 -18 7 -18 7 0 -8 20 -15 20
-15 0 -16 -10 -1 -22 -1 -25 -1 -3 1 -5 -10 -3 -23 1 -14 -3 -28 -8 -32 -7 -4
-8 -1 -3 7 5 8 3 11 -6 8 -8 -3 -13 -14 -13 -26 1 -13 -3 -19 -12 -15 -8 3
-14 -2 -14 -11 0 -9 -7 -19 -15 -22 -13 -5 -13 -9 -3 -22 12 -13 10 -14 -10
-3 -22 12 -23 11 -13 -8 10 -17 8 -19 -9 -16 -17 3 -19 1 -10 -15 9 -16 8 -18
-6 -13 -12 4 -15 3 -10 -5 7 -11 -6 -17 -28 -13 -5 1 -4 -5 4 -13 10 -14 10
-16 -5 -16 -12 0 -15 -5 -11 -16 5 -14 4 -15 -8 -5 -12 10 -13 9 -9 -8 4 -15
1 -21 -11 -21 -9 0 -16 -6 -16 -14 0 -8 -5 -18 -12 -22 -7 -5 -8 -3 -3 6 5 9
4 11 -4 6 -8 -6 -9 -12 -2 -20 8 -10 4 -16 -14 -24 -15 -7 -25 -20 -25 -32 0
-11 -7 -20 -15 -20 -8 0 -14 -3 -14 -7 3 -21 -2 -33 -16 -33 -8 0 -15 -7 -15
-16 0 -11 -5 -14 -16 -10 -14 5 -15 4 -4 -9 7 -8 8 -15 3 -15 -5 0 -10 -7 -10
-15 0 -11 4 -12 14 -3 10 8 12 7 8 -4 -6 -16 19 -48 37 -48 6 0 6 -6 -2 -15
-12 -15 -12 -16 13 -19 6 -1 11 -9 11 -19 -1 -9 2 -14 7 -11 5 3 9 0 9 -5 0
-6 6 -11 14 -11 8 0 17 -7 20 -16 5 -12 3 -14 -7 -8 -7 5 -5 2 5 -8 10 -9 18
-21 18 -27 0 -6 5 -11 11 -11 5 0 7 -4 4 -10 -4 -6 1 -7 11 -3 14 5 15 3 5
-16 -7 -12 -8 -21 -4 -20 21 4 33 -2 33 -16 0 -8 8 -15 18 -16 14 0 14 -2 -3
-9 -18 -8 -17 -9 8 -9 15 -1 27 -6 27 -12 0 -5 -5 -7 -11 -3 -17 10 6 -28 30
-50 11 -10 18 -24 14 -30 -4 -6 1 -5 10 2 14 12 16 11 12 -8 -3 -16 0 -20 10
-16 8 3 17 0 21 -6 4 -7 3 -8 -4 -4 -17 10 -15 -3 3 -20 8 -9 15 -12 15 -8 0
15 29 -31 30 -47 0 -17 44 -59 61 -59 6 0 8 -7 5 -16 -6 -16 17 -48 28 -37 3
4 6 -3 6 -15 0 -12 4 -22 10 -22 5 0 6 -8 3 -17 -6 -16 -5 -17 12 -3 11 9 16
10 11 3 -4 -8 -2 -13 4 -13 6 0 8 -4 5 -10 -3 -5 -1 -10 6 -10 6 0 9 -8 6 -20
-3 -11 -1 -18 4 -14 5 3 17 0 26 -6 17 -11 17 -11 0 -6 -11 3 -15 2 -12 -4 3
-6 11 -10 16 -10 16 0 48 -42 49 -63 0 -10 4 -16 9 -12 6 3 15 -5 22 -17 12
-22 11 -22 -7 -8 -18 14 -18 14 -5 -3 8 -10 20 -16 27 -13 8 3 11 -4 9 -20 -2
-21 0 -22 13 -12 13 10 14 10 8 0 -4 -7 -1 -15 9 -18 12 -5 13 -9 5 -14 -8 -5
-7 -9 4 -13 9 -4 16 -1 16 5 0 6 3 8 6 5 4 -4 1 -13 -6 -22 -10 -12 -9 -15 6
-16 11 -1 23 -1 27 0 5 1 6 -3 3 -8 -4 -5 -2 -12 4 -16 5 -3 10 -11 10 -17 0
-5 -9 0 -21 13 l-20 24 17 -27 c9 -16 21 -28 26 -28 5 0 6 -6 2 -12 -5 -9 -2
-8 9 1 15 12 17 12 11 -4 -5 -13 -4 -16 4 -11 16 10 15 -7 0 -23 -11 -10 -10
-12 2 -11 33 5 39 0 35 -32 -3 -20 -1 -28 4 -20 6 11 11 10 25 -3 9 -9 13 -21
10 -27 -4 -7 -2 -8 4 -4 7 4 12 1 12 -7 0 -8 7 -20 15 -27 8 -7 13 -16 10 -20
-3 -4 2 -11 11 -14 10 -4 13 -2 8 6 -4 7 -3 8 4 4 7 -4 12 -16 12 -28 0 -15 4
-18 16 -14 15 6 15 4 3 -11 -12 -14 -12 -16 0 -8 11 6 13 4 8 -9 -5 -13 1 -20
23 -28 17 -5 30 -15 30 -20 0 -6 -8 -4 -17 3 -16 12 -17 12 -6 -2 7 -9 10 -18
7 -21 -3 -3 3 -5 13 -4 13 1 17 -5 15 -18 -3 -18 -2 -18 14 -5 11 8 15 9 10 2
-4 -8 -2 -13 4 -13 6 0 8 -5 5 -10 -3 -6 -1 -10 4 -10 6 0 11 -6 11 -14 0 -8
5 -18 12 -22 7 -4 8 -3 4 4 -5 8 -1 10 9 5 13 -5 14 -7 3 -14 -10 -7 -8 -12 8
-23 12 -9 24 -29 27 -46 4 -16 12 -30 19 -30 9 0 9 3 0 12 -7 7 -12 17 -12 22
0 6 7 0 16 -12 8 -12 12 -26 9 -32 -3 -6 1 -7 10 -4 11 5 14 2 9 -10 -5 -14 4
-21 27 -18 4 1 5 -7 2 -17 -3 -13 2 -21 17 -26 16 -5 19 -10 10 -20 -10 -11
-8 -13 9 -10 18 3 20 1 11 -15 -13 -24 -13 -30 1 -30 5 0 7 5 4 10 -3 6 -1 10
4 10 6 0 11 -8 11 -17 0 -16 2 -16 11 -3 8 11 9 8 4 -13 -3 -16 -2 -26 3 -23
5 3 18 -2 28 -10 10 -9 14 -13 8 -10 -6 3 -11 -1 -11 -9 0 -8 3 -12 7 -10 4 2
16 -3 26 -11 10 -9 13 -12 5 -8 -9 5 -7 -2 5 -18 10 -14 24 -23 29 -20 6 3 4
-1 -3 -10 -10 -13 -10 -17 3 -22 11 -4 14 -2 9 7 -5 8 -2 7 9 -2 13 -10 15
-17 6 -27 -9 -11 -8 -14 5 -14 10 0 14 -5 11 -10 -3 -6 -1 -10 4 -10 6 0 11 5
11 12 0 6 3 8 6 5 4 -4 1 -13 -5 -21 -11 -13 -9 -15 9 -11 19 4 20 2 8 -12
-11 -14 -11 -16 1 -8 11 6 13 4 8 -9 -6 -14 -3 -16 14 -11 19 6 20 5 9 -15 -8
-15 -8 -20 -1 -16 6 4 11 2 11 -3 0 -6 7 -11 16 -11 8 0 13 -4 10 -8 -3 -5 4
-15 15 -22 10 -8 19 -22 19 -31 0 -9 13 -27 29 -40 24 -19 27 -26 18 -38 -9
-12 -9 -13 1 -7 6 4 12 2 12 -3 0 -6 7 -11 16 -11 10 0 14 -5 10 -16 -3 -8 -2
-12 4 -9 6 3 10 -4 10 -17 0 -18 2 -20 10 -8 8 12 10 10 11 -10 1 -14 1 -28 0
-32 0 -4 5 -5 13 -2 8 3 17 0 21 -5 3 -6 11 -8 17 -5 6 4 9 3 6 -2 -8 -12 27
-75 36 -66 4 4 7 2 6 -3 -5 -21 0 -36 10 -30 6 3 10 2 10 -4 0 -5 -6 -12 -12
-15 -7 -3 -2 -3 11 0 16 4 21 3 17 -5 -4 -6 -2 -19 4 -28 11 -17 11 -17 6 -1
-3 10 0 18 5 18 7 0 9 -11 7 -24 -4 -18 -1 -23 10 -18 9 3 13 1 9 -5 -4 -6 1
-17 11 -24 16 -13 16 -13 2 5 -14 18 -13 19 3 13 12 -5 16 -3 11 5 -5 8 -2 9
11 4 15 -5 16 -4 5 9 -9 11 -9 15 -1 15 7 0 9 5 6 10 -3 6 1 10 10 10 10 0 13
5 9 12 -5 7 -2 9 8 5 17 -6 19 8 4 31 -7 11 -4 12 12 3 15 -8 23 -8 28 1 4 7
3 8 -4 4 -7 -4 -12 -1 -12 8 0 10 6 13 18 9 15 -6 16 -5 2 12 -8 10 -10 16 -3
12 14 -9 36 26 25 39 -4 5 2 2 12 -6 18 -14 19 -14 8 7 -11 19 -9 21 13 18 19
-2 23 1 15 10 -12 14 11 39 26 27 4 -4 2 1 -5 11 -12 15 -12 17 2 12 8 -4 18
-1 23 6 4 7 3 10 -3 6 -5 -3 -10 0 -10 7 0 7 5 13 11 12 6 -1 13 4 15 9 3 6
10 16 17 23 7 7 10 20 7 30 -5 14 -2 13 11 -3 10 -11 15 -15 13 -10 -8 17 21
75 37 75 21 0 30 18 16 35 -9 11 -7 12 9 8 12 -3 22 0 22 6 1 6 2 14 3 19 1
10 44 52 52 51 3 0 9 3 12 7 4 4 1 4 -5 0 -7 -4 -13 -2 -13 3 0 6 5 11 11 11
5 0 7 5 4 11 -4 6 0 9 11 7 14 -2 18 2 16 16 -2 12 1 16 9 10 8 -5 10 -3 5 5
-9 13 22 54 34 46 5 -3 6 5 3 17 -3 17 -2 19 5 10 7 -11 11 -8 16 12 3 14 13
26 21 26 8 0 15 5 15 11 0 5 -5 7 -12 3 -7 -5 -8 -3 -4 5 5 7 14 10 22 7 16
-6 28 10 14 19 -8 5 -7 11 1 21 6 7 16 11 22 7 6 -4 8 0 4 9 -3 10 7 27 28 46
19 16 31 33 27 37 -4 5 2 5 13 1 15 -6 17 -4 8 5 -9 9 -9 15 2 25 17 17 29 18
19 2 -4 -7 -3 -8 5 -4 9 6 9 11 -1 24 -11 14 -10 15 6 9 17 -7 17 -6 5 10 -9
11 -10 14 -1 9 7 -4 12 -2 12 4 0 6 4 9 9 6 5 -3 8 2 7 12 0 10 6 17 15 16 9
-1 16 5 17 12 1 8 3 20 4 28 1 8 9 13 21 11 15 -3 16 -1 7 10 -8 10 -8 15 1
21 8 5 9 3 4 -6 -6 -9 -4 -11 4 -6 7 5 10 14 7 21 -2 7 4 15 16 18 15 4 19 11
15 26 -3 12 -2 19 3 16 4 -3 16 3 27 13 10 9 13 13 6 8 -10 -6 -12 -4 -7 8 3
9 14 16 23 16 14 0 14 2 1 11 -12 9 -11 10 6 6 16 -3 21 0 20 12 -2 8 7 20 18
26 12 6 21 17 21 25 0 8 8 18 18 22 15 6 22 25 18 50 0 4 16 20 35 37 24 19
34 34 29 42 -6 9 -3 10 9 6 14 -5 17 -3 12 8 -3 10 1 15 12 16 11 0 13 2 4 6
-9 3 3 21 35 51 26 25 39 39 28 31 -18 -13 -19 -12 -8 2 7 9 10 19 6 23 -4 4
0 4 8 1 9 -3 22 2 30 12 13 17 13 17 -6 3 -19 -14 -19 -14 -6 3 7 9 20 17 28
17 8 0 11 5 8 10 -4 6 -12 7 -18 4 -7 -4 -8 -3 -4 2 5 5 14 9 20 9 7 0 12 6
12 14 0 8 6 16 14 19 9 3 11 0 6 -8 -5 -9 -4 -11 3 -6 8 5 9 13 2 25 -7 15 -6
18 8 17 10 0 17 6 16 16 -1 11 5 15 17 13 16 -3 18 -1 8 17 -8 15 -8 19 1 13
7 -4 14 1 17 15 4 14 11 19 21 15 13 -5 13 -3 1 12 -8 9 -9 14 -4 11 6 -4 19
1 30 9 19 15 19 15 -5 9 -25 -6 -25 -6 -2 6 14 7 21 17 17 26 -4 12 -3 12 9 3
11 -9 15 -8 20 4 4 11 2 14 -7 9 -8 -5 -8 -2 2 9 7 9 18 14 25 11 6 -3 2 2 -9
11 -20 17 -20 17 3 10 18 -5 22 -2 22 14 0 12 5 21 11 21 5 0 7 6 3 13 -4 6
-3 9 1 4 10 -8 55 31 55 47 0 6 -10 0 -21 -14 -19 -23 -20 -24 -9 -2 6 13 22
27 36 32 13 5 24 12 24 15 0 4 -4 3 -10 0 -5 -3 -10 -1 -10 4 0 6 10 11 23 12
12 0 17 3 10 5 -8 4 -7 11 4 24 9 10 20 17 24 15 4 -3 6 3 5 13 0 9 4 16 11
15 7 -2 10 6 8 18 -3 15 0 19 11 15 8 -3 13 -2 10 3 -3 5 6 16 20 26 22 14 23
19 12 33 -9 11 -10 14 0 8 7 -4 12 -2 12 6 0 10 3 9 11 -2 9 -12 10 -11 6 6
-2 12 0 28 5 35 8 11 9 10 4 -3 -3 -11 -1 -15 8 -12 8 3 12 14 9 27 -3 16 -2
18 5 8 7 -9 12 -10 16 -2 4 6 5 11 1 11 -3 0 -1 9 5 20 6 11 15 18 20 15 6 -3
7 1 4 9 -3 9 -1 16 5 16 6 0 10 5 9 12 -3 11 2 13 34 17 7 0 3 8 -8 16 -18 15
-18 15 0 8 13 -4 17 -3 12 5 -4 7 -2 12 4 12 6 0 8 5 4 13 -5 8 -2 7 9 -2 15
-12 17 -12 11 3 -3 9 -1 16 6 16 6 0 8 5 5 10 -5 9 5 14 25 12 3 0 4 18 2 40
-3 28 -7 36 -13 27 -7 -12 -9 -11 -10 1 -1 8 -1 19 0 23 1 4 -6 7 -15 5 -11
-2 -18 5 -20 20 -4 25 -34 74 -34 56 0 -5 5 -15 12 -22 9 -9 9 -12 0 -12 -6 0
-14 11 -18 25 -4 15 -11 22 -18 18 -6 -4 -5 1 3 10 12 15 12 17 -4 11 -13 -5
-16 -4 -11 4 4 7 2 12 -4 12 -6 0 -8 5 -5 10 3 6 1 10 -5 10 -6 0 -8 5 -4 13
6 9 4 9 -8 -1 -14 -11 -16 -10 -11 7 3 13 1 21 -6 21 -7 0 -9 -5 -5 -12 5 -9
2 -9 -9 1 -19 15 -23 26 -6 15 7 -4 10 -1 7 7 -3 8 -12 13 -19 11 -11 -3 -12
-1 -1 9 6 7 12 18 12 24 0 5 -4 4 -9 -4 -8 -12 -12 -12 -25 2 -18 17 -22 32
-6 22 16 -10 11 1 -7 16 -14 12 -16 12 -8 0 5 -10 4 -12 -3 -7 -7 4 -12 16
-12 28 0 14 -5 18 -16 14 -8 -3 -12 -2 -9 4 8 13 -19 52 -30 42 -4 -4 -6 3 -3
14 4 16 1 21 -11 19 -16 -2 -31 12 -31 30 0 6 5 3 11 -5 7 -10 9 -11 7 -2 -2
8 -6 12 -10 10 -3 -2 -15 6 -27 16 -17 16 -19 22 -9 34 11 13 9 14 -12 7 -22
-7 -23 -6 -12 8 12 14 11 16 -8 12 -16 -3 -19 -1 -11 8 7 9 7 17 -1 27 -8 12
-9 11 -3 -5 5 -16 2 -15 -17 5 -13 14 -20 28 -15 31 5 3 1 9 -8 13 -9 3 -13
11 -9 18 5 8 2 9 -9 5 -11 -4 -20 1 -27 16 -11 21 -11 21 4 3 9 -11 16 -15 16
-9 0 7 -5 15 -10 18 -6 4 -8 10 -5 15 3 5 0 12 -6 16 -8 4 -9 3 -5 -4 4 -7 1
-12 -8 -12 -10 0 -13 7 -11 21 3 15 0 19 -10 15 -8 -3 -17 0 -21 6 -4 7 -3 8
4 4 7 -4 12 -2 12 3 0 6 -4 11 -9 11 -6 0 -16 12 -24 28 -7 15 -18 26 -25 25
-6 -2 -9 3 -6 11 3 7 -3 19 -13 27 -16 13 -17 12 -5 -3 10 -12 10 -18 1 -24
-7 -4 -9 -3 -5 4 3 6 1 14 -5 17 -5 4 -8 14 -5 22 3 8 2 12 -3 9 -5 -3 -12 1
-15 10 -3 8 -11 12 -17 8 -8 -4 -8 -1 0 15 10 18 9 20 -5 14 -13 -5 -15 -3 -9
7 6 10 4 12 -9 7 -14 -5 -15 -3 -6 13 9 16 8 18 -6 13 -13 -5 -15 -3 -9 7 6
10 4 12 -9 7 -9 -4 -15 -3 -11 2 3 6 -9 24 -27 42 -18 18 -22 24 -9 13 l24
-19 -14 23 c-8 12 -19 22 -26 22 -7 0 -13 9 -13 20 0 11 -5 20 -11 20 -5 0 -7
-5 -3 -12 4 -7 3 -8 -5 -4 -6 4 -9 11 -7 15 3 4 -3 17 -14 28 -10 12 -16 24
-13 27 4 3 -2 6 -13 6 -16 0 -17 2 -4 11 12 9 10 10 -8 6 -17 -4 -21 -2 -14 6
12 14 -11 40 -24 29 -5 -4 -2 1 5 11 12 15 11 17 -5 18 -11 1 -22 1 -25 1 -3
-1 -6 6 -6 13 0 9 5 12 12 7 6 -4 3 0 -7 9 -9 9 -14 20 -10 23 3 4 -2 4 -12 0
-14 -5 -17 -3 -14 7 3 8 -5 19 -16 24 -13 6 -21 20 -20 33 1 12 -2 19 -7 17
-4 -3 -10 -1 -14 5 -4 6 -12 7 -18 3 -7 -4 -6 1 2 10 12 15 12 17 -1 12 -12
-5 -15 0 -13 19 2 14 -2 29 -7 33 -7 3 -8 1 -4 -5 4 -7 1 -12 -7 -12 -7 0 -14
7 -14 15 0 8 5 15 10 15 6 0 7 3 4 6 -4 4 -14 1 -23 -7 -16 -13 -16 -12 -6 8
11 19 10 21 -7 18 -14 -3 -18 1 -14 11 3 8 0 14 -7 14 -7 0 -10 6 -7 13 3 8
-7 21 -24 31 -24 14 -28 21 -19 31 10 12 8 13 -10 10 -19 -4 -20 -2 -8 12 7 9
8 14 2 10 -6 -3 -17 5 -24 19 -8 13 -19 23 -26 20 -7 -3 -10 2 -7 15 4 13 0
19 -11 19 -10 0 -13 6 -9 16 4 10 -1 17 -16 21 -11 3 -21 10 -21 15 0 15 -27
38 -36 30 -5 -4 -2 2 6 13 8 11 11 17 6 13 -10 -8 -36 14 -29 25 2 4 -3 7 -13
7 -13 0 -14 3 -4 15 10 12 8 13 -10 10 -19 -4 -20 -2 -8 12 9 12 9 15 1 9 -8
-4 -13 -2 -13 4 0 6 -5 8 -12 4 -7 -5 -9 0 -6 14 5 16 2 19 -11 14 -14 -5 -14
-3 -3 10 11 14 10 16 -10 12 -13 -2 -17 -1 -10 2 10 5 7 10 -10 18 -14 8 -22
19 -20 30 3 14 -1 17 -14 12 -14 -5 -15 -4 -4 9 7 9 10 18 6 22 -3 3 -6 1 -6
-5 0 -7 -5 -12 -11 -12 -5 0 -7 5 -4 10 3 6 1 10 -5 10 -7 0 -9 9 -6 23 3 12
3 17 0 10 -6 -13 -34 -6 -34 9 0 5 6 6 13 3 6 -4 3 1 -8 10 -11 9 -19 21 -17
26 1 5 -5 9 -14 9 -14 0 -14 3 -4 16 8 8 9 14 4 13 -19 -3 -34 1 -34 11 0 6
-10 21 -23 33 -17 16 -18 18 -2 7 20 -15 20 -15 1 8 -11 12 -25 22 -33 22 -8
0 -11 5 -8 10 3 6 1 10 -4 10 -6 0 -11 7 -11 15 0 9 -7 18 -15 21 -8 4 -12 10
-9 15 3 5 0 9 -6 9 -6 0 -8 5 -4 12 5 8 2 9 -11 4 -15 -5 -16 -4 -5 9 11 13
10 14 -5 9 -13 -5 -16 -4 -11 4 4 7 2 12 -4 12 -7 0 -9 7 -6 16 6 15 4 15 -11
3 -9 -8 -14 -9 -10 -2 4 6 1 16 -8 20 -8 5 -16 21 -17 35 -1 15 -6 24 -10 22
-5 -3 -5 -10 -2 -16 4 -7 2 -8 -5 -4 -6 4 -9 12 -6 17 4 5 1 9 -6 9 -10 0 -10
3 -2 11 6 6 9 18 6 26 -4 11 -9 9 -20 -7 -8 -11 -19 -20 -25 -20 -6 0 -6 6 2
15 7 9 11 18 8 20 -3 3 -11 -6 -18 -20z m755 -945 c3 -6 -1 -7 -9 -4 -18 7
-21 14 -7 14 6 0 13 -4 16 -10z m890 -1160 c3 -6 -1 -7 -9 -4 -18 7 -21 14 -7
14 6 0 13 -4 16 -10z m-3243 -755 c2 3 5 -2 5 -10 0 -19 0 -19 -23 7 -12 14
-13 18 -3 10 9 -6 18 -10 21 -7z m2638 -845 c0 -5 -5 -10 -11 -10 -5 0 -7 5
-4 10 3 6 8 10 11 10 2 0 4 -4 4 -10z m-1990 -20 c0 -5 -2 -10 -4 -10 -3 0 -8
5 -11 10 -3 6 -1 10 4 10 6 0 11 -4 11 -10z m1960 -24 c0 -3 -4 -8 -10 -11 -5
-3 -10 -1 -10 4 0 6 5 11 10 11 6 0 10 -2 10 -4z m-1873 -92 c-3 -3 -12 -4
-19 -1 -8 3 -5 6 6 6 11 1 17 -2 13 -5z"/>
<path d="M2236 4701 c-4 -5 -2 -12 3 -15 5 -4 12 -2 15 3 4 5 2 12 -3 15 -5 4
-12 2 -15 -3z"/>
<path d="M3445 3921 c-6 -11 13 -26 22 -17 4 3 1 6 -6 6 -7 0 -9 5 -6 10 3 6
4 10 1 10 -3 0 -7 -4 -11 -9z"/>
<path d="M1006 2067 c3 -10 9 -15 12 -12 3 3 0 11 -7 18 -10 9 -11 8 -5 -6z"/>
<path d="M1246 1747 c3 -10 9 -15 12 -12 3 3 0 11 -7 18 -10 9 -11 8 -5 -6z"/>
<path d="M3705 1531 c-3 -5 -2 -12 3 -15 5 -3 9 1 9 9 0 17 -3 19 -12 6z"/>
<path d="M3604 1409 c-19 -22 -19 -22 4 -8 12 8 22 17 22 21 0 12 -6 9 -26
-13z"/>
<path d="M3186 861 c-4 -5 -2 -12 3 -15 5 -4 12 -2 15 3 4 5 2 12 -3 15 -5 4
-12 2 -15 -3z"/>
<path d="M3045 670 c-3 -6 1 -7 9 -4 18 7 21 14 7 14 -6 0 -13 -4 -16 -10z"/>
<path d="M2946 528 c3 -5 10 -6 15 -3 13 9 11 12 -6 12 -8 0 -12 -4 -9 -9z"/>
<path d="M2866 434 c-5 -14 -4 -15 9 -4 17 14 19 20 6 20 -5 0 -12 -7 -15 -16z"/>
<path d="M2420 180 c0 -5 5 -10 11 -10 5 0 7 5 4 10 -3 6 -8 10 -11 10 -2 0
-4 -4 -4 -10z"/>
</g>
</svg>
